<svg width="252" height="47" viewBox="0 0 252 47" fill="none" xmlns="http://www.w3.org/2000/svg">
<g clip-path="url(#clip0_366_11428)">
<path d="M5.7 15.7002L7.5 3.7002H11.3V20.6002H8.8V8.5002L6.9 20.6002H4.4L2.4 8.7002V20.6002H0V3.8002H3.8L5.7 15.7002Z" fill="black"/>
<path d="M14.3 7.8001C14.3 5.1001 15.7 3.6001 18.4 3.6001C21.1 3.6001 22.5 5.1001 22.5 7.8001V16.6001C22.5 19.3001 21 20.8001 18.4 20.8001C15.8 20.8001 14.3 19.3001 14.3 16.6001V7.8001ZM17 16.8001C17 18.0001 17.5 18.5001 18.4 18.5001C19.3 18.5001 19.8 18.0001 19.8 16.8001V7.6001C19.8 6.4001 19.3 5.9001 18.4 5.9001C17.6 6.0001 17 6.4001 17 7.6001V16.8001Z" fill="black"/>
<path d="M24.7 18.1998C25.9 18.1998 26.3 17.9998 26.4 16.4998L26.8 3.7998H34.4V20.6998H31.7V6.1998H29.3L29 16.3998C28.9 19.4998 27.8 20.6998 25.1 20.6998H24.7V18.1998Z" fill="black"/>
<path d="M37.5 7.8001C37.5 5.1001 39 3.6001 41.6 3.6001C44.2 3.6001 45.7 5.1001 45.7 7.8001V16.6001C45.7 19.3001 44.2 20.8001 41.6 20.8001C39 20.8001 37.5 19.3001 37.5 16.6001V7.8001ZM40.2 16.8001C40.2 18.0001 40.7 18.5001 41.6 18.5001C42.5 18.5001 43 18.0001 43 16.8001V7.6001C43 6.4001 42.5 6.0001 41.6 6.0001C40.7 6.0001 40.2 6.5001 40.2 7.7001V16.8001Z" fill="black"/>
<path d="M56.5 22.8998V20.5998H50.7V22.8998H48.1V18.2998H49.2C49.7 17.6998 49.9 16.8998 49.9 16.0998L50.5 3.7998H58V18.2998H59.2V22.8998H56.5ZM52.5 15.9998C52.4 17.2998 52.2 17.7998 51.7 18.1998H55.2V6.1998H53L52.5 15.9998Z" fill="black"/>
<path d="M64.6 10.8998H68.3V13.2998H64.6V18.1998H69.3V20.5998H62V3.7998H69.3V6.1998H64.6V10.8998Z" fill="black"/>
<path d="M80 10.5998L83.2 3.7998H85.9L82.6 10.5998L85.9 20.5998H83.1L80.7 13.0998L80 14.3998V20.5998H77.3V14.3998L76.6 13.0998L74.2 20.5998H71.4L74.7 10.6998L71.4 3.7998H74.1L77.3 10.5998V3.7998H80V10.5998Z" fill="black"/>
<path d="M90.9 20.5998H88.2V3.7998H90.9V10.9998H94V3.7998H96.7V20.6998H94V13.4998H90.9V20.5998Z" fill="black"/>
<path d="M100 20.5998V3.7998H102.7V10.0998H104C106.7 10.0998 108 11.5998 108 14.2998V16.4998C108 19.1998 106.7 20.6998 104 20.6998H100V20.5998ZM103.9 18.1998C104.8 18.1998 105.2 17.7998 105.2 16.5998V14.0998C105.2 12.8998 104.7 12.4998 103.9 12.4998H102.6V18.1998H103.9ZM109.5 20.5998V3.7998H112.2V20.6998H109.5V20.5998Z" fill="black"/>
<path d="M118.2 20.6H115.4V3.8H117.8V14.5L118.8 10.8L121 3.8H124V20.7H121.6V8.7L120.5 12.8L118.2 20.6ZM121 0C120.9 0.9 120.5 1.1 119.8 1.1C119.1 1.1 118.7 0.9 118.6 0H116.9C117 1.6 117.8 2.7 119.7 2.7C121.6 2.7 122.6 1.7 122.6 0H121Z" fill="black"/>
<path d="M132.2 3.7998H134.9V18.2998H137.9V3.7998H140.7V18.2998H141.9V22.8998H139.3V20.5998H132.2V3.7998Z" fill="black"/>
<path d="M147.3 10.8998H151V13.2998H147.3V18.1998H152V20.5998H144.7V3.7998H152V6.1998H147.3V10.8998Z" fill="black"/>
<path d="M157.5 20.5998H154.8V3.7998H157.5V10.9998H160.6V3.7998H163.3V20.6998H160.6V13.4998H157.5V20.5998Z" fill="black"/>
<path d="M165.8 3.7998H174.1V6.1998H171.3V20.6998H168.6V6.1998H165.8V3.7998Z" fill="black"/>
<path d="M184.5 7.89981V10.0998C184.5 12.7998 183.2 14.2998 180.5 14.2998H179.2V20.5998H176.5V3.7998H180.5C183.2 3.7998 184.5 5.19981 184.5 7.89981ZM179.2 6.1998V11.8998H180.5C181.4 11.8998 181.8 11.4998 181.8 10.2998V7.7998C181.8 6.5998 181.3 6.1998 180.5 6.1998H179.2Z" fill="black"/>
<path d="M186.9 11H191.8V13.4H186.9V11Z" fill="black"/>
<path d="M200.6 15.7002L202.4 3.7002H206.2V20.6002H203.6V8.5002L201.7 20.6002H199.1L197.1 8.7002V20.6002H194.7V3.8002H198.5L200.6 15.7002Z" fill="black"/>
<path d="M215.4 16.3002C214.8 19.3002 213.7 20.9002 209.9 20.6002V18.2002C211.3 18.3002 212.1 18.1002 212.3 16.8002V16.7002L208.6 3.7002H211.3L212.8 9.5002L213.6 13.5002L214.2 9.6002L215.4 3.8002H218.2L215.4 16.3002Z" fill="black"/>
<path d="M225.8 7.9C225.8 6.4 225.3 6 224.4 6C223.5 6 223 6.4 223 7.6V9H220.5V7.7C220.5 5 221.8 3.5 224.5 3.5C227.2 3.5 228.5 5.1 228.5 7.8V8.2C228.5 10 227.9 11.1 226.6 11.7C227.9 12.3 228.5 13.5 228.5 15.2V16.5C228.5 19.2 227.1 20.7 224.5 20.7C221.9 20.7 220.5 19.2 220.5 16.5V14.6H223.1V16.6C223.1 17.8 223.6 18.3 224.5 18.3C225.4 18.3 225.9 17.9 225.9 16.4V15.1C225.9 13.5 225.4 13 224.1 13H223.4V10.6H224.2C225.2 10.6 225.8 10.2 225.8 8.8V7.9Z" fill="black"/>
<path d="M234.3 10.8998H238V13.2998H234.3V18.1998H239V20.5998H231.7V3.7998H239V6.1998H234.3V10.8998Z" fill="black"/>
<path d="M244.6 20.6H241.8V3.8H244.2V14.5L245.2 10.8L247.4 3.8H250.4V20.7H248V8.7L246.9 12.8L244.6 20.6ZM247.4 0C247.3 0.9 246.9 1.1 246.2 1.1C245.5 1.1 245.1 0.9 245 0H243.3C243.4 1.6 244.2 2.7 246.1 2.7C248 2.7 249 1.7 249 0H247.4Z" fill="black"/>
<path d="M3.6 44.5001H1V28.1001H3.3V38.5001L4.3 34.9001L6.4 28.1001H9.3V44.5001H6.9V33.0001L5.8 37.0001L3.6 44.5001Z" fill="black"/>
<path d="M17.9 39.8001L19.7 28.2001H23.4V44.6001H20.9V32.8001L19 44.5001H16.5L14.5 32.9001V44.5001H12.2V28.1001H16L17.9 39.8001Z" fill="black"/>
<path d="M29 35.0001H32.6V37.3001H29V42.1001H33.5V44.4001H26.4V28.1001H33.5V30.4001H29V35.0001Z" fill="black"/>
<path d="M39 44.5001H36.4V28.1001H39V35.1001H42V28.1001H44.7V44.5001H42V37.5001H39V44.5001Z" fill="black"/>
<path d="M50.4 44.5001H47.7V28.1001H50V38.5001L51 34.9001L53.1 28.1001H56V44.5001H53.6V33.0001L52.5 37.0001L50.4 44.5001Z" fill="black"/>
<path d="M72.5 44.5001H69.9L69.4 41.5001H66.2L65.7 44.5001H63.3L66 28.1001H69.8L72.5 44.5001ZM66.5 39.3001H69L67.8 31.0001L66.5 39.3001Z" fill="black"/>
<path d="M82.5 46.7002V44.5002H76.9V46.7002H74.4V42.2002H75.4C75.9 41.6002 76.1 40.8002 76 40.1002L76.6 28.2002H83.9V42.3002H85V46.8002H82.5V46.7002ZM78.5 40.0002C78.4 41.2002 78.2 41.8002 77.8 42.2002H81.2V30.5002H79L78.5 40.0002Z" fill="black"/>
<path d="M93.3 39.8001L95 28.1001H98.6V44.5001H96.1V32.8001L94.3 44.5001H91.8L89.8 32.9001V44.5001H87.5V28.1001H91.1L93.3 39.8001Z" fill="black"/>
<path d="M104.5 44.5001H101.8V28.1001H104.2V38.5001L105.2 34.9001L107.3 28.1001H110.2V44.5001H107.8V33.0001L106.7 37.0001L104.5 44.5001Z" fill="black"/>
<path d="M120.9 32.2001V34.3001C120.9 36.9001 119.6 38.3001 117 38.3001H115.8V44.4001H113.2V28.1001H117.1C119.6 28.1001 120.9 29.6001 120.9 32.2001ZM115.8 30.5001V36.0001H117C117.8 36.0001 118.3 35.6001 118.3 34.5001V32.0001C118.3 30.8001 117.8 30.5001 117 30.5001H115.8Z" fill="black"/>
<path d="M131.8 44.5001H129.2L128.7 41.5001H125.5L125 44.5001H122.6L125.3 28.1001H129.1L131.8 44.5001ZM125.8 39.3001H128.3L127 31.0001L125.8 39.3001Z" fill="black"/>
<path d="M133.5 42.2001C134.7 42.2001 135.1 42.0001 135.1 40.5001L135.5 28.1001H142.9V44.5001H140.2V30.5001H138L137.7 40.4001C137.6 43.4001 136.5 44.6001 133.9 44.6001H133.5V42.2001Z" fill="black"/>
<path d="M154.6 44.5001H152L151.6 41.5001H148.4L148 44.5001H145.6L148.3 28.1001H152.1L154.6 44.5001ZM148.6 39.3001H151.1L149.8 31.0001L148.6 39.3001Z" fill="black"/>
<path d="M164.6 44.5001H162V28.1001H164.6V35.1001H167.6V28.1001H170.3V44.5001H167.6V37.5001H164.6V44.5001Z" fill="black"/>
<path d="M181.8 44.5001H179.2L178.7 41.5001H175.5L175.1 44.5001H172.7L175.4 28.1001H179.2L181.8 44.5001ZM175.8 39.3001H178.3L177 31.0001L175.8 39.3001Z" fill="black"/>
<path d="M192.9 28.1001L190.2 36.1001L193.1 44.5001H190.3L188.2 38.0001L186 44.5001H183.6L186.5 36.1001L183.8 28.1001H186.5L188.5 34.1001L190.5 28.1001H192.9Z" fill="black"/>
<path d="M198.3 44.5001H195.6V28.1001H197.9V38.5001L198.9 34.9001L201 28.1001H203.9V44.5001H201.5V33.0001L200.4 37.0001L198.3 44.5001Z" fill="black"/>
<path d="M212.5 39.8001L214.3 28.2001H217.9V44.6001H215.4V32.8001L213.6 44.5001H211.1L209.1 32.9001V44.5001H207V28.1001H210.6L212.5 39.8001Z" fill="black"/>
<path d="M220.9 32.1C220.9 29.5 222.3 28 224.9 28C227.5 28 228.9 29.5 228.9 32.1V40.6C228.9 43.2 227.5 44.7 224.9 44.7C222.3 44.7 220.9 43.2 220.9 40.6V32.1ZM223.5 40.8C223.5 42 224 42.4 224.9 42.4C225.7 42.4 226.3 42 226.3 40.8V31.9C226.3 30.7 225.8 30.3 224.9 30.3C224.1 30.3 223.5 30.7 223.5 31.9V40.8Z" fill="black"/>
<path d="M239.6 31.9001V32.5001C239.6 34.2001 239.1 35.3001 237.9 35.8001C239.3 36.3001 239.9 37.6001 239.9 39.3001V40.6001C239.9 43.1001 238.5 44.5001 235.9 44.5001H231.8V28.1001H235.8C238.4 28.1001 239.6 29.4001 239.6 31.9001ZM234.3 30.5001V34.8001H235.3C236.3 34.8001 236.9 34.4001 236.9 33.1001V32.2001C236.9 31.0001 236.5 30.5001 235.6 30.5001H234.3ZM234.3 37.1001V42.1001H235.8C236.7 42.1001 237.2 41.7001 237.2 40.5001V39.1001C237.2 37.6001 236.7 37.1001 235.5 37.1001H234.3Z" fill="black"/>
<path d="M251.1 44.5001H248.5L248 41.5001H244.8L244.3 44.5001H241.9L244.6 28.1001H248.4L251.1 44.5001ZM245.1 39.3001H247.6L246.3 31.0001L245.1 39.3001Z" fill="black"/>
</g>
<defs>
<clipPath id="clip0_366_11428">
<rect width="252" height="47" fill="white"/>
</clipPath>
</defs>
</svg>
