<svg width="252" height="47" viewBox="0 0 252 47" fill="none" xmlns="http://www.w3.org/2000/svg">
<path d="M5.74573 15.7324L7.58751 3.75879H11.3445V20.6248H8.79251V8.5298L6.92625 20.6248H4.37421L2.361 8.69968V20.6248H0V3.75879H3.75701L5.74573 15.7324Z" fill="black"/>
<path d="M14.3177 7.81477C14.3177 5.11621 15.7628 3.57764 18.4177 3.57764C21.0725 3.57764 22.5176 5.11621 22.5176 7.81477V16.5851C22.5176 19.2837 21.0481 20.8271 18.4177 20.8271C15.7872 20.8271 14.3177 19.2837 14.3177 16.5851V7.81477ZM17.0167 16.755C17.0167 17.9586 17.5555 18.4149 18.4177 18.4149C19.2798 18.4149 19.8137 17.9586 19.8137 16.755V7.64005C19.8137 6.43152 19.2749 5.97528 18.4177 5.97528C17.5604 5.97528 17.0167 6.43152 17.0167 7.64005V16.755Z" fill="black"/>
<path d="M24.7263 18.2417C25.9558 18.2417 26.3477 18.0718 26.3967 16.5041L26.8375 3.75879H34.474V20.6248H31.7261V6.17098H29.3651L29.0712 16.3634C28.9732 19.4502 27.8466 20.6539 25.1525 20.6539H24.7362L24.7263 18.2417Z" fill="black"/>
<path d="M37.5311 7.81477C37.5311 5.11621 39.0006 3.57764 41.631 3.57764C44.2614 3.57764 45.7309 5.11621 45.7309 7.81477V16.5851C45.7309 19.2837 44.2614 20.8271 41.631 20.8271C39.0006 20.8271 37.5311 19.2837 37.5311 16.5851V7.81477ZM40.2301 16.755C40.2301 17.9586 40.7689 18.4149 41.631 18.4149C42.4931 18.4149 43.027 17.9586 43.027 16.755V7.64005C43.027 6.43152 42.4882 5.97528 41.631 5.97528C40.7738 5.97528 40.2301 6.43152 40.2301 7.64005V16.755Z" fill="black"/>
<path d="M56.5217 22.8914V20.6248H50.7564V22.8914H48.1309V18.266H49.1889C49.6517 17.629 49.8847 16.8563 49.8502 16.0722L50.4625 3.75879H58.0255V18.266H59.206V22.8914H56.5217ZM52.4953 16.0236C52.4218 17.3001 52.1769 17.8534 51.7361 18.266H55.2726V6.17098H52.99L52.4953 16.0236Z" fill="black"/>
<path d="M64.6286 10.8673H68.3317V13.2941H64.6286V18.235H69.2918V20.6618H61.9443V3.75693H69.2918V6.18369H64.6286V10.8673ZM64.898 0.553598V2.86873H62.5419V0.53418L64.898 0.553598ZM68.6305 0.553598V2.86873H66.2695V0.53418L68.6305 0.553598Z" fill="black"/>
<path d="M79.97 10.578L83.1637 3.75879H85.8627L82.5514 10.6022L85.8627 20.6248H83.0854L80.6362 13.1552L79.97 14.4317V20.6248H77.2955V14.4317L76.6343 13.1309L74.1851 20.6248H71.4126L74.7533 10.6751L71.4126 3.75879H74.1116L77.3053 10.578V3.75879H79.9798L79.97 10.578Z" fill="black"/>
<path d="M90.9474 20.6248H88.2484V3.75879H90.9474V10.9905H94.0187V3.75879H96.7667V20.6248H94.0187V13.3979H90.9474V20.6248Z" fill="black"/>
<path d="M99.9601 20.6248V3.75879H102.679V10.0975H103.957C106.656 10.0975 107.984 11.5535 107.984 14.2667V16.4556C107.984 19.1542 106.656 20.6248 103.957 20.6248H99.9601ZM103.938 18.198C104.795 18.198 105.26 17.8097 105.26 16.6061V14.0774C105.26 12.8737 104.795 12.4854 103.938 12.4854H102.679V18.198H103.938ZM109.512 20.6248V3.75879H112.211V20.6248H109.512Z" fill="black"/>
<path d="M118.177 20.6226H115.415V3.75664H117.82V14.4344L118.799 10.7263L121.013 3.76148H123.982V20.6275H121.533V8.74606L120.426 12.891L118.177 20.6226ZM120.955 0C120.881 0.893049 120.465 1.1066 119.725 1.1066C118.986 1.1066 118.643 0.893049 118.569 0H116.884C116.938 1.64049 117.82 2.6743 119.71 2.6743C121.601 2.6743 122.581 1.64049 122.581 0H120.955Z" fill="black"/>
<path d="M132.196 3.75879H134.9V18.2174H137.947V3.75879H140.7V18.266H141.875V22.8914H139.25V20.6248H132.177L132.196 3.75879Z" fill="black"/>
<path d="M147.297 10.8692H151.005V13.296H147.297V18.2369H151.961V20.6636H144.613V3.75879H151.961V6.18555H147.297V10.8692Z" fill="black"/>
<path d="M157.54 20.6248H154.841V3.75879H157.54V10.9905H160.611V3.75879H163.359V20.6248H160.611V13.3979H157.54V20.6248Z" fill="black"/>
<path d="M165.789 3.75879H174.116V6.18555H171.289V20.6394H168.59V6.17098H165.769L165.789 3.75879Z" fill="black"/>
<path d="M184.544 7.92797V10.1218C184.544 12.8203 183.222 14.2909 180.518 14.2909H179.24V20.6248H176.541V3.75879H180.518C183.222 3.75879 184.544 5.22941 184.544 7.92797ZM179.24 6.17098V11.8787H180.518C181.38 11.8787 181.845 11.4953 181.845 10.2916V7.75809C181.845 6.55442 181.38 6.17098 180.518 6.17098H179.24Z" fill="black"/>
<path d="M186.901 10.9893H191.799V13.416H186.901V10.9893Z" fill="black"/>
<path d="M200.601 15.7324L202.443 3.75879H206.2V20.6248H203.648V8.5298L201.782 20.6248H199.23L197.217 8.69968V20.6248H194.861V3.75879H198.613L200.601 15.7324Z" fill="black"/>
<path d="M215.384 16.3343C214.748 19.3726 213.69 20.8917 209.933 20.6491V18.2902C211.309 18.3825 212.093 18.1446 212.313 16.9167L212.343 16.7711L208.61 3.75879H211.285L212.754 9.51992L213.587 13.4707L214.224 9.54418L215.453 3.75879H218.279L215.384 16.3343Z" fill="black"/>
<path d="M225.842 7.90296C225.842 6.3838 225.303 5.96154 224.446 5.96154C223.589 5.96154 223.021 6.41777 223.021 7.6263V8.99986H220.542V7.7428C220.542 5.04423 221.865 3.5542 224.52 3.5542C227.175 3.5542 228.566 5.10733 228.566 7.8156V8.25241C228.566 10.0579 227.973 11.1888 226.675 11.7178C228.022 12.3003 228.566 13.5525 228.566 15.2609V16.5859C228.566 19.2845 227.189 20.8279 224.539 20.8279C221.889 20.8279 220.513 19.2845 220.513 16.5859V14.7319H223.065V16.7558C223.065 17.9595 223.604 18.4157 224.466 18.4157C225.328 18.4157 225.862 18.008 225.862 16.5131V15.1881C225.862 13.6253 225.323 13.0428 224.094 13.0428H223.432V10.6161H224.245C225.25 10.6161 225.862 10.1841 225.862 8.83484L225.842 7.90296Z" fill="black"/>
<path d="M234.292 10.8692H238V13.296H234.292V18.2369H238.955V20.6636H231.607V3.75879H238.955V6.18555H234.292V10.8692Z" fill="black"/>
<path d="M244.628 20.6226H241.855V3.75664H244.241V14.4344L245.22 10.7263L247.434 3.76148H250.403V20.6275H247.954V8.74606L246.847 12.891L244.628 20.6226ZM247.405 0C247.332 0.893049 246.915 1.1066 246.176 1.1066C245.436 1.1066 245.093 0.893049 245.02 0H243.349C243.403 1.64049 244.285 2.6743 246.176 2.6743C248.066 2.6743 249.046 1.64049 249.046 0H247.405Z" fill="black"/>
<path d="M3.64446 44.5028H0.950378V28.1367H3.28689V38.4942L4.24204 34.8928L6.38752 28.1367H9.26774V44.5028H6.91164V32.9757L5.83891 36.9944L3.64446 44.5028Z" fill="black"/>
<path d="M17.8739 39.7561L19.6618 28.1367H23.3257V44.5028H20.8471V32.7621L19.0348 44.5028H16.5562L14.5969 32.9271V44.5028H12.3094V28.1367H15.9586L17.8739 39.7561Z" fill="black"/>
<path d="M29.0275 35.0336H32.6327V37.3681H29.0324V42.1634H33.5585V44.5028H26.4118V28.1367H33.5585V30.4713H29.0324L29.0275 35.0336Z" fill="black"/>
<path d="M39.0003 44.5028H36.3797V28.1367H39.0003V35.1501H41.9785V28.1367H44.6481V44.5028H41.9785V37.4895H39.0003V44.5028Z" fill="black"/>
<path d="M50.4283 44.5028H47.7342V28.1367H50.0707V38.4942L51.0259 34.8928L53.1714 28.1367H56.0565V44.5028H53.6955V32.9757L52.6227 36.9944L50.4283 44.5028Z" fill="black"/>
<path d="M72.4755 44.5028H69.8304L69.3797 41.5324H66.1615L65.706 44.5028H63.3009L65.9705 28.1367H69.8059L72.4755 44.5028ZM66.4946 39.3095H69.0221L67.7584 31.0343L66.4946 39.3095Z" fill="black"/>
<path d="M82.4633 46.7015V44.5028H76.8596V46.7015H74.3125V42.2119H75.3363C75.7878 41.5943 76.014 40.843 75.9779 40.0812L76.5756 28.1367H83.9231V42.2119H85.0448V46.7015H82.4633ZM78.5447 40.0376C78.4712 41.2752 78.2361 41.814 77.805 42.2119H81.2338V30.4713H79.0149L78.5447 40.0376Z" fill="black"/>
<path d="M93.2591 39.7561L95.047 28.1367H98.6962V44.5028H96.2177V32.7621L94.4053 44.5028H91.9267L89.9674 32.9271V44.5028H87.6799V28.1367H91.3242L93.2591 39.7561Z" fill="black"/>
<path d="M104.486 44.5028H101.792V28.1367H104.148V38.4942L105.128 34.8928L107.268 28.1367H110.154V44.5028H107.793V32.9757L106.725 36.9944L104.486 44.5028Z" fill="black"/>
<path d="M120.93 32.1797V34.3055C120.93 36.9265 119.646 38.3534 117.011 38.3534H115.772V44.5028H113.151V28.1367H117.011C119.646 28.1367 120.93 29.5588 120.93 32.1797ZM115.782 30.4713V36.014H117.021C117.858 36.014 118.309 35.6403 118.309 34.4706V32.0147C118.309 30.845 117.858 30.4713 117.021 30.4713H115.782Z" fill="black"/>
<path d="M131.824 44.5028H129.179L128.723 41.5324H125.505L125.054 44.5028H122.649L125.319 28.1367H129.154L131.824 44.5028ZM125.843 39.3095H128.366L127.102 31.0343L125.843 39.3095Z" fill="black"/>
<path d="M133.489 42.1877C134.684 42.1877 135.067 42.0226 135.111 40.5035L135.542 28.1367H142.953V44.5028H140.283V30.4713H137.996L137.712 40.3628C137.614 43.3574 136.516 44.5222 133.896 44.5222H133.489V42.1877Z" fill="black"/>
<path d="M154.635 44.5028H151.985L151.535 41.5324H148.316L147.866 44.5028H145.456L148.125 28.1367H151.966L154.635 44.5028ZM148.649 39.3095H151.172L149.908 31.0343L148.649 39.3095Z" fill="black"/>
<path d="M164.55 44.5028H161.949V28.1367H164.574V35.1501H167.552V28.1367H170.222V44.5028H167.552V37.4895H164.574L164.55 44.5028Z" fill="black"/>
<path d="M181.782 44.5028H179.132L178.681 41.5324H175.463L175.013 44.5028H172.603L175.272 28.1367H179.093L181.782 44.5028ZM175.796 39.3095H178.324L177.06 31.0343L175.796 39.3095Z" fill="black"/>
<path d="M192.935 28.1367L190.192 36.0868L193.131 44.5028H190.359L188.213 38.0233L186.048 44.5028H183.599L186.538 36.0868L183.795 28.1367H186.514L188.473 34.1696L190.496 28.1367H192.935Z" fill="black"/>
<path d="M198.319 44.5028H195.63V28.1367H197.961V38.4942L198.941 34.8928L201.086 28.1367H203.971V44.5028H201.61V32.9757L200.538 36.9944L198.319 44.5028Z" fill="black"/>
<path d="M212.548 39.7561L214.336 28.1367H217.985V44.5028H215.507V32.7621L213.694 44.5028H211.216L209.256 32.9271V44.5028H206.969V28.1367H210.613L212.548 39.7561Z" fill="black"/>
<path d="M220.866 32.0821C220.866 29.4612 222.271 27.9663 224.848 27.9663C227.424 27.9663 228.83 29.4612 228.83 32.0821V40.5904C228.83 43.2113 227.424 44.7061 224.848 44.7061C222.271 44.7061 220.866 43.2113 220.866 40.5904V32.0821ZM223.491 40.7554C223.491 41.9251 224.015 42.3716 224.848 42.3716C225.681 42.3716 226.205 41.9251 226.205 40.7554V31.8977C226.205 30.728 225.681 30.2863 224.848 30.2863C224.015 30.2863 223.491 30.728 223.491 31.8977V40.7554Z" fill="black"/>
<path d="M239.553 31.8982V32.4855C239.553 34.1696 239.029 35.2423 237.863 35.781C239.269 36.3198 239.822 37.5574 239.822 39.2853V40.62C239.822 43.1438 238.46 44.5028 235.84 44.5028H231.715V28.1367H235.673C238.387 28.1367 239.553 29.3744 239.553 31.8982ZM234.331 30.4713V34.8006H235.36C236.339 34.8006 236.932 34.3784 236.932 33.0679V32.1554C236.932 30.9857 236.526 30.4713 235.595 30.4713H234.331ZM234.331 37.1351V42.1634H235.835C236.717 42.1634 237.192 41.7654 237.192 40.552V39.1251C237.192 37.606 236.702 37.1351 235.502 37.1351H234.331Z" fill="black"/>
<path d="M251.064 44.5028H248.419L247.968 41.5324H244.73L244.275 44.5028H241.87L244.539 28.1367H248.375L251.064 44.5028ZM245.083 39.3095H247.611L246.347 31.0343L245.083 39.3095Z" fill="black"/>
</svg>
