<svg width="312" height="59" viewBox="0 0 312 59" fill="none" xmlns="http://www.w3.org/2000/svg">
<g clip-path="url(#clip0_366_11868)">
<path d="M7.05714 19.7179L9.28572 4.86072H13.9905V25.7845H10.8952V10.8036L8.54286 25.7845H5.44762L2.97143 11.0512V25.7845H0V4.98453H4.70476L7.05714 19.7179Z" fill="white"/>
<path d="M17.7048 9.93694C17.7048 6.59408 19.4381 4.73694 22.781 4.73694C26.1238 4.73694 27.8572 6.59408 27.8572 9.93694V20.8322C27.8572 24.175 26 26.0322 22.781 26.0322C19.5619 26.0322 17.7048 24.175 17.7048 20.8322V9.93694ZM21.0476 21.0798C21.0476 22.5655 21.6667 23.1846 22.781 23.1846C23.8952 23.1846 24.5143 22.5655 24.5143 21.0798V9.68932C24.5143 8.2036 23.8952 7.58456 22.781 7.58456C21.7905 7.70837 21.0476 8.2036 21.0476 9.68932V21.0798Z" fill="white"/>
<path d="M30.581 22.8131C32.0667 22.8131 32.5619 22.5654 32.6857 20.7083L33.181 4.9845H42.5905V25.9083H39.2476V7.95593H36.2762L35.9048 20.5845C35.781 24.4226 34.4191 25.9083 31.0762 25.9083H30.581V22.8131Z" fill="white"/>
<path d="M46.4286 9.93694C46.4286 6.59408 48.2857 4.73694 51.5047 4.73694C54.7238 4.73694 56.5809 6.59408 56.5809 9.93694V20.8322C56.5809 24.175 54.7238 26.0322 51.5047 26.0322C48.2857 26.0322 46.4286 24.175 46.4286 20.8322V9.93694ZM49.7714 21.0798C49.7714 22.5655 50.3905 23.1846 51.5047 23.1846C52.619 23.1846 53.2381 22.5655 53.2381 21.0798V9.68932C53.2381 8.2036 52.619 7.70837 51.5047 7.70837C50.3905 7.70837 49.7714 8.32741 49.7714 9.81313V21.0798Z" fill="white"/>
<path d="M69.9524 28.6321V25.7845H62.7714V28.6321H59.5524V22.9369H60.9143C61.5333 22.194 61.781 21.2035 61.781 20.2131L62.5238 4.9845H71.8095V22.9369H73.2952V28.6321H69.9524ZM65 20.0893C64.8762 21.6988 64.6286 22.3178 64.0095 22.8131H68.3429V7.95593H65.6191L65 20.0893Z" fill="white"/>
<path d="M79.9809 13.775H84.5619V16.7464H79.9809V22.8131H85.8V25.7845H76.7619V4.9845H85.8V7.95593H79.9809V13.775Z" fill="white"/>
<path d="M99.0476 13.4035L103.01 4.9845H106.352L102.267 13.4035L106.352 25.7845H102.886L99.9143 16.4988L99.0476 18.1083V25.7845H95.7048V18.1083L94.8381 16.4988L91.8667 25.7845H88.4L92.4857 13.5274L88.4 4.9845H91.7428L95.7048 13.4035V4.9845H99.0476V13.4035Z" fill="white"/>
<path d="M112.543 25.7845H109.2V4.9845H112.543V13.8988H116.381V4.9845H119.724V25.9083H116.381V16.994H112.543V25.7845Z" fill="white"/>
<path d="M123.81 25.7845V4.9845H127.152V12.7845H128.762C132.105 12.7845 133.714 14.6416 133.714 17.9845V20.7083C133.714 24.0512 132.105 25.9083 128.762 25.9083H123.81V25.7845ZM128.638 22.8131C129.752 22.8131 130.248 22.3178 130.248 20.8321V17.7369C130.248 16.2512 129.629 15.7559 128.638 15.7559H127.029V22.8131H128.638ZM135.571 25.7845V4.9845H138.914V25.9083H135.571V25.7845Z" fill="white"/>
<path d="M146.343 25.7845H142.876V4.98455H145.848V18.2322L147.086 13.6512L149.81 4.98455H153.524V25.9084H150.552V11.0512L149.19 16.1274L146.343 25.7845ZM149.81 0.279785C149.686 1.39407 149.19 1.64169 148.324 1.64169C147.457 1.64169 146.962 1.39407 146.838 0.279785H144.733C144.857 2.26074 145.848 3.62264 148.2 3.62264C150.552 3.62264 151.79 2.38455 151.79 0.279785H149.81Z" fill="white"/>
<path d="M163.676 4.9845H167.019V22.9369H170.733V4.9845H174.2V22.9369H175.686V28.6321H172.467V25.7845H163.676V4.9845Z" fill="white"/>
<path d="M182.371 13.775H186.952V16.7464H182.371V22.8131H188.19V25.7845H179.152V4.9845H188.19V7.95593H182.371V13.775Z" fill="white"/>
<path d="M195 25.7845H191.657V4.9845H195V13.8988H198.838V4.9845H202.181V25.9083H198.838V16.994H195V25.7845Z" fill="white"/>
<path d="M205.276 4.9845H215.552V7.95593H212.086V25.9083H208.743V7.95593H205.276V4.9845Z" fill="white"/>
<path d="M228.429 10.0607V12.7845C228.429 16.1274 226.819 17.9845 223.476 17.9845H221.867V25.7845H218.524V4.9845H223.476C226.819 4.9845 228.429 6.71783 228.429 10.0607ZM221.867 7.95593V15.0131H223.476C224.59 15.0131 225.086 14.5178 225.086 13.0321V9.93688C225.086 8.45116 224.467 7.95593 223.476 7.95593H221.867Z" fill="white"/>
<path d="M231.4 13.8988H237.467V16.8702H231.4V13.8988Z" fill="white"/>
<path d="M248.362 19.7179L250.59 4.86072H255.295V25.7845H252.076V10.8036L249.724 25.7845H246.505L244.029 11.0512V25.7845H241.057V4.98453H245.762L248.362 19.7179Z" fill="white"/>
<path d="M266.686 20.4607C265.943 24.175 264.581 26.156 259.876 25.7845V22.8131C261.61 22.9369 262.6 22.6893 262.848 21.0798V20.956L258.267 4.86072H261.61L263.467 12.0417L264.457 16.9941L265.2 12.1655L266.686 4.98453H270.152L266.686 20.4607Z" fill="white"/>
<path d="M279.562 10.0608C279.562 8.20363 278.943 7.7084 277.829 7.7084C276.714 7.7084 276.095 8.20363 276.095 9.68935V11.4227H273V9.81316C273 6.4703 274.61 4.61316 277.952 4.61316C281.295 4.61316 282.905 6.59411 282.905 9.93697V10.4322C282.905 12.6608 282.162 14.0227 280.552 14.7655C282.162 15.5084 282.905 16.9941 282.905 19.0989V20.7084C282.905 24.0513 281.171 25.9084 277.952 25.9084C274.733 25.9084 273 24.0513 273 20.7084V18.356H276.219V20.8322C276.219 22.3179 276.838 22.937 277.952 22.937C279.067 22.937 279.686 22.4417 279.686 20.5846V18.9751C279.686 16.9941 279.067 16.3751 277.457 16.3751H276.59V13.4036H277.581C278.819 13.4036 279.562 12.9084 279.562 11.1751V10.0608Z" fill="white"/>
<path d="M290.086 13.775H294.667V16.7464H290.086V22.8131H295.905V25.7845H286.867V4.9845H295.905V7.95593H290.086V13.775Z" fill="white"/>
<path d="M302.838 25.7845H299.371V4.98455H302.343V18.2322L303.581 13.6512L306.305 4.98455H310.019V25.9084H307.048V11.0512L305.686 16.1274L302.838 25.7845ZM306.305 0.279785C306.181 1.39407 305.686 1.64169 304.819 1.64169C303.952 1.64169 303.457 1.39407 303.333 0.279785H301.229C301.352 2.26074 302.343 3.62264 304.695 3.62264C307.048 3.62264 308.286 2.38455 308.286 0.279785H306.305Z" fill="white"/>
<path d="M4.45715 55.3751H1.2381V35.0703H4.08572V47.9465L5.32381 43.4894L7.92381 35.0703H11.5143V55.3751H8.54286V41.137L7.18096 46.0894L4.45715 55.3751Z" fill="white"/>
<path d="M22.1619 49.556L24.3905 35.1941H28.9714V55.4989H25.8762V40.8894L23.5238 55.3751H20.4286L17.9524 41.0132V55.3751H15.1048V35.0703H19.8095L22.1619 49.556Z" fill="white"/>
<path d="M35.9048 43.6132H40.3619V46.4608H35.9048V52.4036H41.4762V55.2513H32.6857V35.0703H41.4762V37.9179H35.9048V43.6132Z" fill="white"/>
<path d="M48.2857 55.3751H45.0667V35.0703H48.2857V43.737H52V35.0703H55.3429V55.3751H52V46.7084H48.2857V55.3751Z" fill="white"/>
<path d="M62.4 55.3751H59.0571V35.0703H61.9048V47.9465L63.1429 43.4894L65.7429 35.0703H69.3333V55.3751H66.3619V41.137L65 46.0894L62.4 55.3751Z" fill="white"/>
<path d="M89.7619 55.3751H86.5429L85.9238 51.6608H81.9619L81.3429 55.3751H78.3714L81.7143 35.0703H86.4191L89.7619 55.3751ZM82.3333 48.937H85.4286L83.9429 38.6608L82.3333 48.937Z" fill="white"/>
<path d="M102.143 58.0989V55.375H95.2095V58.0989H92.1143V52.5274H93.3524C93.9714 51.7846 94.219 50.7941 94.0952 49.9274L94.8381 35.1941H103.876V52.6512H105.238V58.2227H102.143V58.0989ZM97.1905 49.8036C97.0667 51.2893 96.8191 52.0322 96.3238 52.5274H100.533V38.0417H97.8095L97.1905 49.8036Z" fill="white"/>
<path d="M115.514 49.556L117.619 35.0703H122.076V55.3751H118.981V40.8894L116.752 55.3751H113.657L111.181 41.0132V55.3751H108.333V35.0703H112.79L115.514 49.556Z" fill="white"/>
<path d="M129.381 55.3751H126.038V35.0703H129.01V47.9465L130.248 43.4894L132.848 35.0703H136.438V55.3751H133.467V41.137L132.105 46.0894L129.381 55.3751Z" fill="white"/>
<path d="M149.686 40.1465V42.7465C149.686 45.9655 148.076 47.6989 144.857 47.6989H143.371V55.2513H140.152V35.0703H144.981C148.076 35.0703 149.686 36.9275 149.686 40.1465ZM143.371 38.0417V44.8513H144.857C145.848 44.8513 146.467 44.356 146.467 42.9941V39.8989C146.467 38.4132 145.848 38.0417 144.857 38.0417H143.371Z" fill="white"/>
<path d="M163.181 55.3751H159.962L159.343 51.6608H155.381L154.762 55.3751H151.79L155.133 35.0703H159.838L163.181 55.3751ZM155.752 48.937H158.848L157.238 38.6608L155.752 48.937Z" fill="white"/>
<path d="M165.286 52.5275C166.771 52.5275 167.267 52.2798 167.267 50.4227L167.762 35.0703H176.924V55.3751H173.581V38.0417H170.857L170.486 50.2989C170.362 54.0132 169 55.4989 165.781 55.4989H165.286V52.5275Z" fill="white"/>
<path d="M191.41 55.3751H188.19L187.695 51.6608H183.733L183.238 55.3751H180.267L183.61 35.0703H188.314L191.41 55.3751ZM183.981 48.937H187.076L185.467 38.6608L183.981 48.937Z" fill="white"/>
<path d="M203.79 55.3751H200.571V35.0703H203.79V43.737H207.505V35.0703H210.848V55.3751H207.505V46.7084H203.79V55.3751Z" fill="white"/>
<path d="M225.086 55.3751H221.867L221.248 51.6608H217.286L216.79 55.3751H213.819L217.162 35.0703H221.867L225.086 55.3751ZM217.657 48.937H220.752L219.143 38.6608L217.657 48.937Z" fill="white"/>
<path d="M238.829 35.0703L235.486 44.9751L239.076 55.3751H235.61L233.01 47.3275L230.286 55.3751H227.314L230.905 44.9751L227.562 35.0703H230.905L233.381 42.4989L235.857 35.0703H238.829Z" fill="white"/>
<path d="M245.514 55.3751H242.171V35.0703H245.019V47.9465L246.257 43.4894L248.857 35.0703H252.448V55.3751H249.476V41.137L248.114 46.0894L245.514 55.3751Z" fill="white"/>
<path d="M263.095 49.556L265.324 35.1941H269.781V55.4989H266.686V40.8894L264.457 55.3751H261.362L258.886 41.0132V55.3751H256.286V35.0703H260.743L263.095 49.556Z" fill="white"/>
<path d="M273.495 40.0226C273.495 36.8036 275.229 34.9464 278.448 34.9464C281.667 34.9464 283.4 36.8036 283.4 40.0226V50.5464C283.4 53.7655 281.667 55.6226 278.448 55.6226C275.229 55.6226 273.495 53.7655 273.495 50.5464V40.0226ZM276.714 50.794C276.714 52.2797 277.333 52.775 278.448 52.775C279.438 52.775 280.181 52.2797 280.181 50.794V39.775C280.181 38.2893 279.562 37.794 278.448 37.794C277.457 37.794 276.714 38.2893 276.714 39.775V50.794Z" fill="white"/>
<path d="M296.648 39.7751V40.5179C296.648 42.6227 296.029 43.9846 294.543 44.6036C296.276 45.2227 297.019 46.8322 297.019 48.937V50.5465C297.019 53.6417 295.286 55.3751 292.067 55.3751H286.99V35.0703H291.943C295.162 35.0703 296.648 36.6798 296.648 39.7751ZM290.086 38.0417V43.3655H291.324C292.562 43.3655 293.305 42.8703 293.305 41.2608V40.1465C293.305 38.6608 292.81 38.0417 291.695 38.0417H290.086ZM290.086 46.2132V52.4036H291.943C293.057 52.4036 293.676 51.9084 293.676 50.4227V48.6894C293.676 46.8322 293.057 46.2132 291.571 46.2132H290.086Z" fill="white"/>
<path d="M310.886 55.3751H307.667L307.048 51.6608H303.086L302.467 55.3751H299.495L302.838 35.0703H307.543L310.886 55.3751ZM303.457 48.937H306.552L304.943 38.6608L303.457 48.937Z" fill="white"/>
</g>
<defs>
<clipPath id="clip0_366_11868">
<rect width="312" height="58.1905" fill="white" transform="translate(0 0.279785)"/>
</clipPath>
</defs>
</svg>
