<svg width="311" height="59" viewBox="0 0 311 59" fill="none" xmlns="http://www.w3.org/2000/svg">
<path d="M7.1174 19.6491L9.39887 4.81702H14.0528V25.7094H10.8915V10.727L8.57974 25.7094H5.41846L2.92464 10.9374V25.7094H0V4.81702H4.65392L7.1174 19.6491Z" fill="white"/>
<path d="M17.7358 9.84155C17.7358 6.49877 19.5258 4.5929 22.8145 4.5929C26.1032 4.5929 27.8931 6.49877 27.8931 9.84155V20.7056C27.8931 24.0484 26.0728 25.9603 22.8145 25.9603C19.5561 25.9603 17.7358 24.0484 17.7358 20.7056V9.84155ZM21.0791 20.916C21.0791 22.4071 21.7466 22.9722 22.8145 22.9722C23.8824 22.9722 24.5438 22.4071 24.5438 20.916V9.62512C24.5438 8.12809 23.8763 7.56292 22.8145 7.56292C21.7526 7.56292 21.0791 8.12809 21.0791 9.62512V20.916Z" fill="white"/>
<path d="M30.6292 22.7574C32.1522 22.7574 32.6376 22.547 32.6983 20.605L33.2444 4.81702H42.7039V25.7094H39.3V7.80506H36.3753L36.0112 20.4307C35.8899 24.2544 34.4943 25.7455 31.1571 25.7455H30.6413L30.6292 22.7574Z" fill="white"/>
<path d="M46.4908 9.84155C46.4908 6.49877 48.3112 4.5929 51.5695 4.5929C54.8279 4.5929 56.6482 6.49877 56.6482 9.84155V20.7056C56.6482 24.0484 54.8279 25.9603 51.5695 25.9603C48.3112 25.9603 46.4908 24.0484 46.4908 20.7056V9.84155ZM49.8342 20.916C49.8342 22.4071 50.5016 22.9722 51.5695 22.9722C52.6374 22.9722 53.2988 22.4071 53.2988 20.916V9.62512C53.2988 8.12809 52.6314 7.56292 51.5695 7.56292C50.5077 7.56292 49.8342 8.12809 49.8342 9.62512V20.916Z" fill="white"/>
<path d="M70.015 28.5171V25.7094H62.8733V28.5171H59.6211V22.7875H60.9317C61.505 21.9985 61.7935 21.0413 61.7508 20.07L62.5093 4.81702H71.8778V22.7875H73.3401V28.5171H70.015ZM65.0274 20.0098C64.9364 21.5911 64.633 22.2764 64.0869 22.7875H68.4677V7.80506H65.6402L65.0274 20.0098Z" fill="white"/>
<path d="M80.0573 13.6225H84.6445V16.6286H80.0573V22.749H85.8338V25.7551H76.7322V4.81462H85.8338V7.82072H80.0573V13.6225ZM80.391 0.846564V3.71438H77.4725V0.82251L80.391 0.846564ZM85.0146 0.846564V3.71438H82.09V0.82251L85.0146 0.846564Z" fill="white"/>
<path d="M99.0611 13.2642L103.017 4.81702H106.361L102.259 13.2942L106.361 25.7094H102.92L99.8863 16.4566L99.0611 18.0378V25.7094H95.7482V18.0378L94.929 16.4266L91.8952 25.7094H88.4608L92.599 13.3844L88.4608 4.81702H91.8042L95.7603 13.2642V4.81702H99.0733L99.0611 13.2642Z" fill="white"/>
<path d="M112.659 25.7094H109.316V4.81702H112.659V13.7752H116.464V4.81702H119.868V25.7094H116.464V16.7572H112.659V25.7094Z" fill="white"/>
<path d="M123.823 25.7094V4.81702H127.191V12.6689H128.775C132.118 12.6689 133.762 14.4726 133.762 17.8334V20.5449C133.762 23.8877 132.118 25.7094 128.775 25.7094H123.823ZM128.75 22.7033C129.812 22.7033 130.389 22.2223 130.389 20.7313V17.5989C130.389 16.1079 129.812 15.6269 128.75 15.6269H127.191V22.7033H128.75ZM135.655 25.7094V4.81702H138.999V25.7094H135.655Z" fill="white"/>
<path d="M146.39 25.7067H142.967V4.81434H145.947V18.0412L147.16 13.4479L149.903 4.82034H153.58V25.7127H150.546V10.9949L149.175 16.1293L146.39 25.7067ZM149.83 0.160889C149.739 1.26713 149.223 1.53167 148.307 1.53167C147.391 1.53167 146.966 1.26713 146.875 0.160889H144.788C144.855 2.19301 145.947 3.47362 148.289 3.47362C150.631 3.47362 151.845 2.19301 151.845 0.160889H149.83Z" fill="white"/>
<path d="M163.755 4.81702H167.105V22.7274H170.879V4.81702H174.289V22.7875H175.745V28.5171H172.493V25.7094H163.731L163.755 4.81702Z" fill="white"/>
<path d="M182.461 13.6249H187.055V16.631H182.461V22.7514H188.238V25.7575H179.136V4.81702H188.238V7.82312H182.461V13.6249Z" fill="white"/>
<path d="M195.149 25.7094H191.806V4.81702H195.149V13.7752H198.953V4.81702H202.357V25.7094H198.953V16.7572H195.149V25.7094Z" fill="white"/>
<path d="M205.367 4.81702H215.682V7.82312H212.181V25.7275H208.838V7.80506H205.343L205.367 4.81702Z" fill="white"/>
<path d="M228.601 9.98149V12.699C228.601 16.0418 226.962 17.8635 223.613 17.8635H222.029V25.7094H218.686V4.81702H223.613C226.962 4.81702 228.601 6.63871 228.601 9.98149ZM222.029 7.80506V14.8754H223.613C224.681 14.8754 225.257 14.4005 225.257 12.9094V9.77106C225.257 8.28004 224.681 7.80506 223.613 7.80506H222.029Z" fill="white"/>
<path d="M231.519 13.7737H237.587V16.7798H231.519V13.7737Z" fill="white"/>
<path d="M248.491 19.6491L250.772 4.81702H255.426V25.7094H252.265V10.727L249.953 25.7094H246.792L244.298 10.9374V25.7094H241.379V4.81702H246.027L248.491 19.6491Z" fill="white"/>
<path d="M266.803 20.3946C266.014 24.1583 264.703 26.0401 260.049 25.7395V22.8175C261.754 22.9318 262.725 22.6372 262.998 21.1161L263.035 20.9357L258.411 4.81702H261.724L263.544 11.9535L264.576 16.8474L265.365 11.9836L266.888 4.81702H270.389L266.803 20.3946Z" fill="white"/>
<path d="M279.757 9.95053C279.757 8.06871 279.09 7.54565 278.028 7.54565C276.966 7.54565 276.262 8.11079 276.262 9.60783V11.3093H273.192V9.75213C273.192 6.40935 274.83 4.5636 278.119 4.5636C281.408 4.5636 283.131 6.4875 283.131 9.84231V10.3834C283.131 12.6199 282.397 14.0208 280.789 14.6761C282.457 15.3976 283.131 16.9487 283.131 19.065V20.7064C283.131 24.0491 281.426 25.961 278.143 25.961C274.861 25.961 273.156 24.0491 273.156 20.7064V18.4097H276.317V20.9168C276.317 22.4078 276.984 22.973 278.052 22.973C279.12 22.973 279.782 22.4679 279.782 20.6162V18.9748C279.782 17.0389 279.114 16.3174 277.591 16.3174H276.772V13.3113H277.779C279.023 13.3113 279.782 12.7763 279.782 11.1049L279.757 9.95053Z" fill="white"/>
<path d="M290.224 13.6249H294.817V16.631H290.224V22.7514H296V25.7575H286.899V4.81702H296V7.82312H290.224V13.6249Z" fill="white"/>
<path d="M303.027 25.7067H299.593V4.81434H302.548V18.0412L303.761 13.4479L306.504 4.82034H310.181V25.7127H307.147V10.9949L305.776 16.1293L303.027 25.7067ZM306.468 0.160889C306.377 1.26713 305.861 1.53167 304.945 1.53167C304.028 1.53167 303.604 1.26713 303.513 0.160889H301.444C301.51 2.19301 302.603 3.47362 304.945 3.47362C307.287 3.47362 308.5 2.19301 308.5 0.160889H306.468Z" fill="white"/>
<path d="M4.51439 55.2876H1.17715V35.0144H4.07146V47.8445L5.25463 43.3834L7.91229 35.0144H11.4801V55.2876H8.56154V41.0086L7.23271 45.9867L4.51439 55.2876Z" fill="white"/>
<path d="M22.1408 49.4076L24.3556 35.0144H28.8942V55.2876H25.8239V40.744L23.5789 55.2876H20.5086L18.0815 40.9484V55.2876H15.2479V35.0144H19.7684L22.1408 49.4076Z" fill="white"/>
<path d="M35.9572 43.5577H40.423V46.4496H35.9633V52.3897H41.5698V55.2876H32.717V35.0144H41.5698V37.9063H35.9633L35.9572 43.5577Z" fill="white"/>
<path d="M48.3107 55.2876H45.0645V35.0144H48.3107V43.702H51.9999V35.0144H55.3068V55.2876H51.9999V46.5999H48.3107V55.2876Z" fill="white"/>
<path d="M62.467 55.2876H59.1297V35.0144H62.024V47.8445L63.2072 43.3834L65.8649 35.0144H69.4388V55.2876H66.5141V41.0086L65.1853 45.9867L62.467 55.2876Z" fill="white"/>
<path d="M89.7775 55.2876H86.5009L85.9427 51.6081H81.9562L81.3919 55.2876H78.4127L81.7196 35.0144H86.4706L89.7775 55.2876ZM82.3688 48.8545H85.4997L83.9343 38.6037L82.3688 48.8545Z" fill="white"/>
<path d="M102.15 58.0111V55.2876H95.2081V58.0111H92.053V52.4498H93.3211C93.8804 51.6847 94.1606 50.7541 94.116 49.8104L94.8562 35.0144H103.958V52.4498H105.347V58.0111H102.15ZM97.2954 49.7563C97.2044 51.2894 96.9132 51.9568 96.3792 52.4498H100.627V37.9063H97.8779L97.2954 49.7563Z" fill="white"/>
<path d="M115.523 49.4076L117.737 35.0144H122.258V55.2876H119.188V40.744L116.943 55.2876H113.872L111.445 40.9484V55.2876H108.612V35.0144H113.126L115.523 49.4076Z" fill="white"/>
<path d="M129.43 55.2876H126.093V35.0144H129.011V47.8445L130.225 43.3834L132.877 35.0144H136.45V55.2876H133.526V41.0086L132.203 45.9867L129.43 55.2876Z" fill="white"/>
<path d="M149.799 40.0226V42.6559C149.799 45.9025 148.209 47.6701 144.945 47.6701H143.41V55.2876H140.163V35.0144H144.945C148.209 35.0144 149.799 36.776 149.799 40.0226ZM143.422 37.9063V44.7722H144.957C145.995 44.7722 146.553 44.3093 146.553 42.8603V39.8181C146.553 38.3692 145.995 37.9063 144.957 37.9063H143.422Z" fill="white"/>
<path d="M163.294 55.2876H160.017L159.453 51.6081H155.467L154.908 55.2876H151.929L155.236 35.0144H159.987L163.294 55.2876ZM155.885 48.8545H159.01L157.445 38.6037L155.885 48.8545Z" fill="white"/>
<path d="M165.357 52.4197C166.837 52.4197 167.311 52.2153 167.365 50.3335L167.899 35.0144H177.08V55.2876H173.773V37.9063H170.939L170.587 50.1591C170.466 53.8687 169.107 55.3116 165.861 55.3116H165.357V52.4197Z" fill="white"/>
<path d="M191.551 55.2876H188.268L187.71 51.6081H183.724L183.166 55.2876H180.18L183.487 35.0144H188.244L191.551 55.2876ZM184.136 48.8545H187.261L185.696 38.6037L184.136 48.8545Z" fill="white"/>
<path d="M203.832 55.2876H200.61V35.0144H203.863V43.702H207.552V35.0144H210.859V55.2876H207.552V46.5999H203.863L203.832 55.2876Z" fill="white"/>
<path d="M225.179 55.2876H221.896L221.338 51.6081H217.351L216.793 55.2876H213.808L217.115 35.0144H221.847L225.179 55.2876ZM217.764 48.8545H220.895L219.329 38.6037L217.764 48.8545Z" fill="white"/>
<path d="M238.995 35.0144L235.597 44.8624L239.237 55.2876H235.803L233.145 47.2613L230.463 55.2876H227.429L231.07 44.8624L227.672 35.0144H231.04L233.467 42.4876L235.973 35.0144H238.995Z" fill="white"/>
<path d="M245.663 55.2876H242.332V35.0144H245.22V47.8445L246.434 43.3834L249.091 35.0144H252.665V55.2876H249.741V41.0086L248.412 45.9867L245.663 55.2876Z" fill="white"/>
<path d="M263.289 49.4076L265.504 35.0144H270.024V55.2876H266.954V40.744L264.709 55.2876H261.639L259.212 40.9484V55.2876H256.378V35.0144H260.893L263.289 49.4076Z" fill="white"/>
<path d="M273.592 39.9018C273.592 36.6552 275.334 34.8035 278.525 34.8035C281.717 34.8035 283.458 36.6552 283.458 39.9018V50.4412C283.458 53.6878 281.717 55.5396 278.525 55.5396C275.334 55.5396 273.592 53.6878 273.592 50.4412V39.9018ZM276.845 50.6456C276.845 52.0946 277.494 52.6477 278.525 52.6477C279.557 52.6477 280.206 52.0946 280.206 50.6456V39.6734C280.206 38.2244 279.557 37.6773 278.525 37.6773C277.494 37.6773 276.845 38.2244 276.845 39.6734V50.6456Z" fill="white"/>
<path d="M296.741 39.6739V40.4013C296.741 42.4876 296.092 43.8163 294.647 44.4836C296.389 45.151 297.075 46.6841 297.075 48.8244V50.4778C297.075 53.6041 295.388 55.2876 292.142 55.2876H287.033V35.0144H291.935C295.297 35.0144 296.741 36.5475 296.741 39.6739ZM290.273 37.9063V43.2692H291.547C292.76 43.2692 293.495 42.7461 293.495 41.1228V39.9925C293.495 38.5436 292.991 37.9063 291.838 37.9063H290.273ZM290.273 46.161V52.3897H292.135C293.228 52.3897 293.816 51.8967 293.816 50.3936V48.626C293.816 46.7442 293.209 46.161 291.723 46.161H290.273Z" fill="white"/>
<path d="M311 55.2876H307.723L307.165 51.6081H303.154L302.59 55.2876H299.611L302.918 35.0144H307.669L311 55.2876ZM303.591 48.8545H306.722L305.157 38.6037L303.591 48.8545Z" fill="white"/>
</svg>
