<svg width="19" height="19" viewBox="0 0 19 19" fill="none" xmlns="http://www.w3.org/2000/svg">
<g clip-path="url(#clip0_43_690)">
<path d="M17.86 18.9999H1.14C0.837653 18.9999 0.54769 18.8798 0.333898 18.666C0.120107 18.4522 0 18.1623 0 17.8599V3.79992C0 3.69914 0.0400353 3.60248 0.111299 3.53122C0.182563 3.45996 0.279218 3.41992 0.38 3.41992H18.62C18.7208 3.41992 18.8174 3.45996 18.8887 3.53122C18.96 3.60248 19 3.69914 19 3.79992V17.8599C19 18.1623 18.8799 18.4522 18.6661 18.666C18.4523 18.8798 18.1623 18.9999 17.86 18.9999ZM0.76 4.17992V17.8599C0.76 17.9607 0.800035 18.0574 0.871299 18.1286C0.942563 18.1999 1.03922 18.2399 1.14 18.2399H17.86C17.9608 18.2399 18.0574 18.1999 18.1287 18.1286C18.2 18.0574 18.24 17.9607 18.24 17.8599V4.17992H0.76Z" fill="#999999"/>
<path d="M18.62 4.18011H0.38C0.279218 4.18011 0.182563 4.14008 0.111299 4.06882C0.0400353 3.99755 0 3.9009 0 3.80011V2.08849C0 1.78614 0.120107 1.49618 0.333898 1.28238C0.54769 1.06859 0.837653 0.948486 1.14 0.948486H17.86C18.1623 0.948486 18.4523 1.06859 18.6661 1.28238C18.8799 1.49618 19 1.78614 19 2.08849V3.79849C19.0002 3.84853 18.9905 3.89811 18.9715 3.94441C18.9525 3.9907 18.9246 4.03278 18.8893 4.06824C18.854 4.1037 18.812 4.13184 18.7658 4.15103C18.7196 4.17023 18.67 4.18012 18.62 4.18011ZM0.76 3.42011H18.24V2.08849C18.24 1.9877 18.2 1.89105 18.1287 1.81979C18.0574 1.74852 17.9608 1.70849 17.86 1.70849H1.14C1.03922 1.70849 0.942563 1.74852 0.871299 1.81979C0.800035 1.89105 0.76 1.9877 0.76 2.08849V3.42011Z" fill="#999999"/>
<path d="M4.5752 16.6439H2.5802C2.47941 16.6439 2.38276 16.6039 2.31149 16.5326C2.24023 16.4614 2.2002 16.3647 2.2002 16.2639V14.2689C2.2002 14.1681 2.24023 14.0715 2.31149 14.0002C2.38276 13.929 2.47941 13.8889 2.5802 13.8889H4.5752C4.67598 13.8889 4.77263 13.929 4.8439 14.0002C4.91516 14.0715 4.9552 14.1681 4.9552 14.2689V16.2639C4.9552 16.3647 4.91516 16.4614 4.8439 16.5326C4.77263 16.6039 4.67598 16.6439 4.5752 16.6439ZM2.9602 15.8839H4.1952V14.6489H2.9602V15.8839Z" fill="#999999"/>
<path d="M4.5752 8.53088H2.5802C2.47941 8.53088 2.38276 8.49084 2.31149 8.41958C2.24023 8.34832 2.2002 8.25166 2.2002 8.15088V6.15588C2.2002 6.0551 2.24023 5.95844 2.31149 5.88718C2.38276 5.81592 2.47941 5.77588 2.5802 5.77588H4.5752C4.67598 5.77588 4.77263 5.81592 4.8439 5.88718C4.91516 5.95844 4.9552 6.0551 4.9552 6.15588V8.15088C4.9552 8.25166 4.91516 8.34832 4.8439 8.41958C4.77263 8.49084 4.67598 8.53088 4.5752 8.53088ZM2.9602 7.77088H4.1952V6.53588H2.9602V7.77088Z" fill="#999999"/>
<path d="M4.5752 12.5857H2.5802C2.47941 12.5857 2.38276 12.5456 2.31149 12.4744C2.24023 12.4031 2.2002 12.3065 2.2002 12.2057V10.2145C2.2002 10.1137 2.24023 10.017 2.31149 9.94577C2.38276 9.87451 2.47941 9.83447 2.5802 9.83447H4.5752C4.67598 9.83447 4.77263 9.87451 4.8439 9.94577C4.91516 10.017 4.9552 10.1137 4.9552 10.2145V12.2057C4.9552 12.3065 4.91516 12.4031 4.8439 12.4744C4.77263 12.5456 4.67598 12.5857 4.5752 12.5857ZM2.9602 11.8257H4.1952V10.5945H2.9602V11.8257Z" fill="#999999"/>
<path d="M12.4716 8.53088H10.4766C10.3758 8.53088 10.2792 8.49084 10.2079 8.41958C10.1366 8.34832 10.0966 8.25166 10.0966 8.15088V6.15588C10.0966 6.0551 10.1366 5.95844 10.2079 5.88718C10.2792 5.81592 10.3758 5.77588 10.4766 5.77588H12.4716C12.5724 5.77588 12.669 5.81592 12.7403 5.88718C12.8116 5.95844 12.8516 6.0551 12.8516 6.15588V8.15088C12.8516 8.25166 12.8116 8.34832 12.7403 8.41958C12.669 8.49084 12.5724 8.53088 12.4716 8.53088ZM10.8566 7.77088H12.0916V6.53588H10.8566V7.77088Z" fill="#999999"/>
<path d="M8.52341 16.6439H6.52841C6.42762 16.6439 6.33097 16.6039 6.25971 16.5326C6.18844 16.4614 6.14841 16.3647 6.14841 16.2639V14.2689C6.14841 14.1681 6.18844 14.0715 6.25971 14.0002C6.33097 13.929 6.42762 13.8889 6.52841 13.8889H8.52341C8.62419 13.8889 8.72084 13.929 8.79211 14.0002C8.86337 14.0715 8.90341 14.1681 8.90341 14.2689V16.2639C8.90341 16.3647 8.86337 16.4614 8.79211 16.5326C8.72084 16.6039 8.62419 16.6439 8.52341 16.6439ZM6.90841 15.8839H8.14341V14.6489H6.90841V15.8839Z" fill="#999999"/>
<path d="M12.4716 12.5857H10.4766C10.3758 12.5857 10.2792 12.5456 10.2079 12.4744C10.1366 12.4031 10.0966 12.3065 10.0966 12.2057V10.2145C10.0966 10.1137 10.1366 10.017 10.2079 9.94577C10.2792 9.87451 10.3758 9.83447 10.4766 9.83447H12.4716C12.5724 9.83447 12.669 9.87451 12.7403 9.94577C12.8116 10.017 12.8516 10.1137 12.8516 10.2145V12.2057C12.8516 12.3065 12.8116 12.4031 12.7403 12.4744C12.669 12.5456 12.5724 12.5857 12.4716 12.5857ZM10.8566 11.8257H12.0916V10.5945H10.8566V11.8257Z" fill="#999999"/>
<path d="M8.52341 12.5857H6.52841C6.42762 12.5857 6.33097 12.5456 6.25971 12.4744C6.18844 12.4031 6.14841 12.3065 6.14841 12.2057V10.2145C6.14841 10.1137 6.18844 10.017 6.25971 9.94577C6.33097 9.87451 6.42762 9.83447 6.52841 9.83447H8.52341C8.62419 9.83447 8.72084 9.87451 8.79211 9.94577C8.86337 10.017 8.90341 10.1137 8.90341 10.2145V12.2057C8.90341 12.3065 8.86337 12.4031 8.79211 12.4744C8.72084 12.5456 8.62419 12.5857 8.52341 12.5857ZM6.90841 11.8257H8.14341V10.5945H6.90841V11.8257Z" fill="#999999"/>
<path d="M8.52341 8.53088H6.52841C6.42762 8.53088 6.33097 8.49084 6.25971 8.41958C6.18844 8.34832 6.14841 8.25166 6.14841 8.15088V6.15588C6.14841 6.0551 6.18844 5.95844 6.25971 5.88718C6.33097 5.81592 6.42762 5.77588 6.52841 5.77588H8.52341C8.62419 5.77588 8.72084 5.81592 8.79211 5.88718C8.86337 5.95844 8.90341 6.0551 8.90341 6.15588V8.15088C8.90341 8.25166 8.86337 8.34832 8.79211 8.41958C8.72084 8.49084 8.62419 8.53088 8.52341 8.53088ZM6.90841 7.77088H8.14341V6.53588H6.90841V7.77088Z" fill="#999999"/>
<path d="M16.4198 8.53088H14.4248C14.324 8.53088 14.2274 8.49084 14.1561 8.41958C14.0848 8.34832 14.0448 8.25166 14.0448 8.15088V6.15588C14.0448 6.0551 14.0848 5.95844 14.1561 5.88718C14.2274 5.81592 14.324 5.77588 14.4248 5.77588H16.4198C16.5206 5.77588 16.6172 5.81592 16.6885 5.88718C16.7598 5.95844 16.7998 6.0551 16.7998 6.15588V8.15088C16.7998 8.25166 16.7598 8.34832 16.6885 8.41958C16.6172 8.49084 16.5206 8.53088 16.4198 8.53088ZM14.8048 7.77088H16.0398V6.53588H14.8048V7.77088Z" fill="#999999"/>
<path d="M16.4198 16.6439H14.4248C14.324 16.6439 14.2274 16.6039 14.1561 16.5326C14.0848 16.4614 14.0448 16.3647 14.0448 16.2639V14.2689C14.0448 14.1681 14.0848 14.0715 14.1561 14.0002C14.2274 13.929 14.324 13.8889 14.4248 13.8889H16.4198C16.5206 13.8889 16.6172 13.929 16.6885 14.0002C16.7598 14.0715 16.7998 14.1681 16.7998 14.2689V16.2639C16.7998 16.3647 16.7598 16.4614 16.6885 16.5326C16.6172 16.6039 16.5206 16.6439 16.4198 16.6439ZM14.8048 15.8839H16.0398V14.6489H14.8048V15.8839Z" fill="#999999"/>
<path d="M12.4716 16.6439H10.4766C10.3758 16.6439 10.2792 16.6039 10.2079 16.5326C10.1366 16.4614 10.0966 16.3647 10.0966 16.2639V14.2689C10.0966 14.1681 10.1366 14.0715 10.2079 14.0002C10.2792 13.929 10.3758 13.8889 10.4766 13.8889H12.4716C12.5724 13.8889 12.669 13.929 12.7403 14.0002C12.8116 14.0715 12.8516 14.1681 12.8516 14.2689V16.2639C12.8516 16.3647 12.8116 16.4614 12.7403 16.5326C12.669 16.6039 12.5724 16.6439 12.4716 16.6439ZM10.8566 15.8839H12.0916V14.6489H10.8566V15.8839Z" fill="#999999"/>
<path d="M16.4198 12.5857H14.4248C14.324 12.5857 14.2274 12.5456 14.1561 12.4744C14.0848 12.4031 14.0448 12.3065 14.0448 12.2057V10.2145C14.0448 10.1137 14.0848 10.017 14.1561 9.94577C14.2274 9.87451 14.324 9.83447 14.4248 9.83447H16.4198C16.5206 9.83447 16.6172 9.87451 16.6885 9.94577C16.7598 10.017 16.7998 10.1137 16.7998 10.2145V12.2057C16.7998 12.3065 16.7598 12.4031 16.6885 12.4744C16.6172 12.5456 16.5206 12.5857 16.4198 12.5857ZM14.8048 11.8257H16.0398V10.5945H14.8048V11.8257Z" fill="#999999"/>
<path d="M3.13879 2.55363C3.03801 2.55363 2.94135 2.51359 2.87009 2.44233C2.79883 2.37106 2.75879 2.27441 2.75879 2.17363V0.382198C2.75879 0.332295 2.76862 0.282882 2.78772 0.236778C2.80681 0.190674 2.8348 0.148783 2.87009 0.113497C2.90538 0.0782105 2.94727 0.0502199 2.99337 0.0311231C3.03947 0.0120263 3.08889 0.00219727 3.13879 0.00219727C3.18869 0.00219727 3.23811 0.0120263 3.28421 0.0311231C3.33031 0.0502199 3.3722 0.0782105 3.40749 0.113497C3.44278 0.148783 3.47077 0.190674 3.48986 0.236778C3.50896 0.282882 3.51879 0.332295 3.51879 0.382198V2.17363C3.51879 2.27441 3.47875 2.37106 3.40749 2.44233C3.33623 2.51359 3.23957 2.55363 3.13879 2.55363Z" fill="#999999"/>
<path d="M4.51657 2.55363C4.41578 2.55363 4.31913 2.51359 4.24787 2.44233C4.1766 2.37106 4.13657 2.27441 4.13657 2.17363V0.382198C4.13657 0.281415 4.1766 0.184761 4.24787 0.113497C4.31913 0.042233 4.41578 0.00219727 4.51657 0.00219727C4.61735 0.00219727 4.714 0.042233 4.78527 0.113497C4.85653 0.184761 4.89657 0.281415 4.89657 0.382198V2.17363C4.89657 2.27441 4.85653 2.37106 4.78527 2.44233C4.714 2.51359 4.61735 2.55363 4.51657 2.55363Z" fill="#999999"/>
<path d="M14.4834 2.55363C14.3826 2.55363 14.286 2.51359 14.2147 2.44233C14.1435 2.37106 14.1034 2.27441 14.1034 2.17363V0.382198C14.1034 0.281415 14.1435 0.184761 14.2147 0.113497C14.286 0.042233 14.3826 0.00219727 14.4834 0.00219727C14.5842 0.00219727 14.6809 0.042233 14.7521 0.113497C14.8234 0.184761 14.8634 0.281415 14.8634 0.382198V2.17363C14.8634 2.27441 14.8234 2.37106 14.7521 2.44233C14.6809 2.51359 14.5842 2.55363 14.4834 2.55363Z" fill="#999999"/>
<path d="M15.8623 2.55363C15.7615 2.55363 15.6649 2.51359 15.5936 2.44233C15.5223 2.37106 15.4823 2.27441 15.4823 2.17363V0.382198C15.4823 0.281415 15.5223 0.184761 15.5936 0.113497C15.6649 0.042233 15.7615 0.00219727 15.8623 0.00219727C15.9631 0.00219727 16.0597 0.042233 16.131 0.113497C16.2023 0.184761 16.2423 0.281415 16.2423 0.382198V2.17363C16.2423 2.27441 16.2023 2.37106 16.131 2.44233C16.0597 2.51359 15.9631 2.55363 15.8623 2.55363Z" fill="#999999"/>
</g>
<defs>
<clipPath id="clip0_43_690">
<rect width="19" height="19" fill="white"/>
</clipPath>
</defs>
</svg>
