<svg width="41" height="33" viewBox="0 0 41 33" fill="none" xmlns="http://www.w3.org/2000/svg">
<path d="M28.8636 32C28.8636 32.2761 29.0875 32.5 29.3636 32.5C29.6398 32.5 29.8636 32.2761 29.8636 32H28.8636ZM22.2727 21.6667V21.1667V21.6667ZM8.09091 21.6667L8.09091 21.1667L8.09091 21.6667ZM1 28.5556H0.5H1ZM0.5 32C0.5 32.2761 0.723858 32.5 1 32.5C1.27614 32.5 1.5 32.2761 1.5 32H0.5ZM39.5 32C39.5 32.2761 39.7239 32.5 40 32.5C40.2761 32.5 40.5 32.2761 40.5 32H39.5ZM40 28.5556L40.5 28.5556L40.5 28.5552L40 28.5556ZM34.8035 21.4056C34.5356 21.3384 34.264 21.5011 34.1968 21.7689C34.1297 22.0367 34.2923 22.3083 34.5602 22.3755L34.8035 21.4056ZM27.7116 0.738675C27.4436 0.672017 27.1724 0.835218 27.1057 1.10319C27.039 1.37117 27.2022 1.64245 27.4702 1.7091L27.7116 0.738675ZM32.923 7.8975H33.423H32.923ZM27.4702 14.0859C27.2022 14.1526 27.039 14.4238 27.1057 14.6918C27.1724 14.9598 27.4436 15.123 27.7116 15.0563L27.4702 14.0859ZM29.8636 32V28.5556H28.8636V32H29.8636ZM29.8636 28.5556C29.8636 26.5912 29.0603 24.7103 27.6352 23.3258L26.9383 24.043C28.1729 25.2423 28.8636 26.8659 28.8636 28.5556H29.8636ZM27.6352 23.3258C26.2106 21.9417 24.2814 21.1667 22.2727 21.1667V22.1667C24.0253 22.1667 25.7034 22.8432 26.9383 24.043L27.6352 23.3258ZM22.2727 21.1667H8.09091V22.1667H22.2727V21.1667ZM8.09091 21.1667C6.08226 21.1667 4.15308 21.9417 2.72847 23.3258L3.42529 24.043C4.66029 22.8432 6.3383 22.1667 8.09091 22.1667L8.09091 21.1667ZM2.72847 23.3258C1.30337 24.7103 0.5 26.5912 0.5 28.5556H1.5C1.5 26.8659 2.19078 25.2423 3.42529 24.043L2.72847 23.3258ZM0.5 28.5556V32H1.5V28.5556H0.5ZM21.7727 7.88889C21.7727 11.4039 18.8356 14.2778 15.1818 14.2778V15.2778C19.3604 15.2778 22.7727 11.9832 22.7727 7.88889H21.7727ZM15.1818 14.2778C11.528 14.2778 8.59091 11.4039 8.59091 7.88889H7.59091C7.59091 11.9832 11.0032 15.2778 15.1818 15.2778V14.2778ZM8.59091 7.88889C8.59091 4.37393 11.528 1.5 15.1818 1.5V0.5C11.0032 0.5 7.59091 3.79459 7.59091 7.88889H8.59091ZM15.1818 1.5C18.8356 1.5 21.7727 4.37393 21.7727 7.88889H22.7727C22.7727 3.79459 19.3604 0.5 15.1818 0.5V1.5ZM40.5 32V28.5556H39.5V32H40.5ZM40.5 28.5552C40.4987 26.9143 39.9365 25.322 38.9042 24.0282L38.1225 24.652C39.0153 25.7709 39.4989 27.1441 39.5 28.5559L40.5 28.5552ZM38.9042 24.0282C37.8721 22.7348 36.4291 21.8134 34.8035 21.4056L34.5602 22.3755C35.977 22.7309 37.2295 23.5327 38.1225 24.652L38.9042 24.0282ZM27.4702 1.7091C28.8908 2.06247 30.1472 2.86447 31.0429 3.98553L31.8242 3.36132C30.789 2.06572 29.3416 1.14412 27.7116 0.738675L27.4702 1.7091ZM31.0429 3.98553C31.9384 5.10631 32.423 6.48267 32.423 7.8975H33.423C33.423 6.25308 32.8595 4.65719 31.8242 3.36132L31.0429 3.98553ZM32.423 7.8975C32.423 9.31233 31.9384 10.6887 31.0429 11.8095L31.8242 12.4337C32.8595 11.1378 33.423 9.54192 33.423 7.8975H32.423ZM31.0429 11.8095C30.1472 12.9305 28.8908 13.7325 27.4702 14.0859L27.7116 15.0563C29.3416 14.6509 30.789 13.7293 31.8242 12.4337L31.0429 11.8095Z" fill="#1B1B1B"/>
</svg>
