<svg width="32" height="30" viewBox="0 0 32 30" fill="none" xmlns="http://www.w3.org/2000/svg">
<path d="M30.6588 29.3655C30.8607 29.5539 31.1771 29.543 31.3655 29.3412C31.5539 29.1393 31.543 28.8229 31.3412 28.6345L30.6588 29.3655ZM24.0912 21.8678C23.8893 21.6794 23.5729 21.6903 23.3845 21.8922C23.1961 22.094 23.207 22.4104 23.4088 22.5989L24.0912 21.8678ZM27.1667 13.4444C27.1667 20.0092 21.454 25.3889 14.3333 25.3889V26.3889C21.9402 26.3889 28.1667 20.6254 28.1667 13.4444H27.1667ZM14.3333 25.3889C7.21263 25.3889 1.5 20.0092 1.5 13.4444H0.5C0.5 20.6254 6.72645 26.3889 14.3333 26.3889V25.3889ZM1.5 13.4444C1.5 6.87964 7.21263 1.5 14.3333 1.5V0.5C6.72645 0.5 0.5 6.26349 0.5 13.4444H1.5ZM14.3333 1.5C21.454 1.5 27.1667 6.87964 27.1667 13.4444H28.1667C28.1667 6.26349 21.9402 0.5 14.3333 0.5V1.5ZM31.3412 28.6345L24.0912 21.8678L23.4088 22.5989L30.6588 29.3655L31.3412 28.6345Z" fill="#999999"/>
</svg>
