<svg width="16" height="11" viewBox="0 0 16 11" fill="none" xmlns="http://www.w3.org/2000/svg">
<path d="M1.13356 0C0.515947 0 0 0.526148 0 1.17857V9.82143C0 10.4728 0.515947 11 1.13356 11H14.8661C15.4837 11 16 10.4739 16 9.82143V1.17857C16 0.527201 15.4837 0 14.8661 0H1.13356ZM1.32525 0.785715H14.6741L8.32525 6.77679C8.16711 6.92621 7.83256 6.92621 7.67409 6.77679L1.32558 0.785715H1.32525ZM0.744186 1.29082L5.38937 5.67538L0.744186 9.73549V1.29082ZM15.2558 1.29082V9.73724L10.6103 5.67188L15.2555 1.29082H15.2558ZM5.95349 6.20784L7.18007 7.35906C7.40592 7.57121 7.6977 7.68841 8 7.68841C8.3023 7.68841 8.59408 7.57121 8.81993 7.35906L10.0465 6.20539L14.6336 10.2143H1.36611L5.95316 6.20609L5.95349 6.20784Z" fill="#333333"/>
</svg>
