<svg width="20" height="24" viewBox="0 0 20 24" fill="none" xmlns="http://www.w3.org/2000/svg">
<path d="M19 10H19.5H19ZM10 23L9.72265 23.416C9.8906 23.528 10.1094 23.528 10.2774 23.416L10 23ZM1 10H0.5H1ZM10 1V1.5V1ZM18.5 10C18.5 13.299 16.3671 16.4271 14.137 18.7811C13.0322 19.9473 11.9257 20.9004 11.0948 21.562C10.6797 21.8925 10.3345 22.1495 10.094 22.3232C9.97374 22.41 9.87975 22.476 9.81639 22.5199C9.78471 22.5418 9.76069 22.5582 9.74489 22.569C9.73698 22.5743 9.73113 22.5783 9.7274 22.5808C9.72554 22.582 9.7242 22.5829 9.72341 22.5835C9.72301 22.5837 9.72275 22.5839 9.72262 22.584C9.72256 22.584 9.72257 22.584 9.72253 22.5841C9.72257 22.584 9.72265 22.584 10 23C10.2774 23.416 10.2775 23.4159 10.2777 23.4158C10.2778 23.4157 10.278 23.4156 10.2782 23.4155C10.2786 23.4152 10.2792 23.4148 10.2799 23.4143C10.2813 23.4134 10.2832 23.4121 10.2856 23.4105C10.2906 23.4072 10.2976 23.4024 10.3067 23.3962C10.325 23.3838 10.3515 23.3657 10.3858 23.3419C10.4542 23.2945 10.5536 23.2248 10.6795 23.1339C10.9311 22.9521 11.289 22.6856 11.7177 22.3443C12.5743 21.6621 13.7178 20.6777 14.863 19.4689C17.1329 17.0729 19.5 13.701 19.5 10H18.5ZM10 23C10.2774 22.584 10.2774 22.584 10.2775 22.5841C10.2774 22.584 10.2774 22.584 10.2774 22.584C10.2773 22.5839 10.277 22.5837 10.2766 22.5835C10.2758 22.5829 10.2745 22.582 10.2726 22.5808C10.2689 22.5783 10.263 22.5743 10.2551 22.569C10.2393 22.5582 10.2153 22.5418 10.1836 22.5199C10.1202 22.476 10.0263 22.41 9.90603 22.3232C9.66551 22.1495 9.32026 21.8925 8.90521 21.562C8.07433 20.9004 6.96781 19.9473 5.86298 18.7811C3.63287 16.4271 1.5 13.299 1.5 10H0.5C0.5 13.701 2.86713 17.0729 5.13702 19.4689C6.28219 20.6777 7.42567 21.6621 8.28229 22.3443C8.71099 22.6856 9.06887 22.9521 9.32054 23.1339C9.4464 23.2248 9.54577 23.2945 9.61424 23.3419C9.64848 23.3657 9.675 23.3838 9.69325 23.3962C9.70238 23.4024 9.70943 23.4072 9.71436 23.4105C9.71682 23.4121 9.71875 23.4134 9.72013 23.4143C9.72082 23.4148 9.72138 23.4152 9.7218 23.4155C9.72201 23.4156 9.72222 23.4157 9.72233 23.4158C9.72251 23.4159 9.72265 23.416 10 23ZM1.5 10C1.5 7.74566 2.39553 5.58365 3.98959 3.98959L3.28249 3.28249C1.50089 5.06408 0.5 7.48044 0.5 10H1.5ZM3.98959 3.98959C5.58365 2.39553 7.74566 1.5 10 1.5V0.5C7.48044 0.5 5.06408 1.50089 3.28249 3.28249L3.98959 3.98959ZM10 1.5C12.2543 1.5 14.4163 2.39553 16.0104 3.98959L16.7175 3.28249C14.9359 1.50089 12.5196 0.5 10 0.5V1.5ZM16.0104 3.98959C17.6045 5.58365 18.5 7.74566 18.5 10H19.5C19.5 7.48044 18.4991 5.06408 16.7175 3.28249L16.0104 3.98959ZM12.5 10C12.5 11.3807 11.3807 12.5 10 12.5V13.5C11.933 13.5 13.5 11.933 13.5 10H12.5ZM10 12.5C8.61929 12.5 7.5 11.3807 7.5 10H6.5C6.5 11.933 8.067 13.5 10 13.5V12.5ZM7.5 10C7.5 8.61929 8.61929 7.5 10 7.5V6.5C8.067 6.5 6.5 8.067 6.5 10H7.5ZM10 7.5C11.3807 7.5 12.5 8.61929 12.5 10H13.5C13.5 8.067 11.933 6.5 10 6.5V7.5Z" fill="#333333"/>
</svg>
