<svg width="21" height="21" viewBox="0 0 21 21" fill="none" xmlns="http://www.w3.org/2000/svg">
<path d="M11 4.8C11 4.52386 10.7761 4.3 10.5 4.3C10.2239 4.3 10 4.52386 10 4.8H11ZM10.5 10.5H10C10 10.6894 10.107 10.8625 10.2764 10.9472L10.5 10.5ZM14.0764 12.8472C14.3234 12.9707 14.6237 12.8706 14.7472 12.6236C14.8707 12.3766 14.7706 12.0763 14.5236 11.9528L14.0764 12.8472ZM19.5 10.5C19.5 15.4706 15.4706 19.5 10.5 19.5V20.5C16.0228 20.5 20.5 16.0228 20.5 10.5H19.5ZM10.5 19.5C5.52944 19.5 1.5 15.4706 1.5 10.5H0.5C0.5 16.0228 4.97715 20.5 10.5 20.5V19.5ZM1.5 10.5C1.5 5.52944 5.52944 1.5 10.5 1.5V0.5C4.97715 0.5 0.5 4.97715 0.5 10.5H1.5ZM10.5 1.5C15.4706 1.5 19.5 5.52944 19.5 10.5H20.5C20.5 4.97715 16.0228 0.5 10.5 0.5V1.5ZM10 4.8V10.5H11V4.8H10ZM10.2764 10.9472L14.0764 12.8472L14.5236 11.9528L10.7236 10.0528L10.2764 10.9472Z" fill="#333333"/>
</svg>
