<svg width="34" height="25" viewBox="0 0 34 25" fill="none" xmlns="http://www.w3.org/2000/svg">
<path d="M31.2204 7.15634L34 3.75369H27.841C24.6472 1.30793 20.873 0 17.0094 0C13.1459 0 9.37172 1.30793 6.17785 3.75369H0L2.77962 7.15634C1.12586 8.87291 0.145045 11.2575 0.0524432 13.7868C-0.0401585 16.316 0.763019 18.7833 2.28569 20.647C3.80837 22.5108 5.92613 23.6188 8.17418 23.7278C10.4222 23.8368 12.6169 22.9379 14.2765 21.2285L17 24.5621L19.7218 21.2305C20.9342 22.4943 22.4479 23.3328 24.0776 23.6433C25.7072 23.9539 27.382 23.7229 28.8967 22.9787C30.4115 22.2346 31.7004 21.0095 32.6055 19.4537C33.5107 17.8979 33.9929 16.0788 33.9929 14.2193H33.9911C33.9926 12.8898 33.7469 11.5745 33.2697 10.3582C32.7925 9.14181 32.0945 8.05118 31.2204 7.15634ZM8.50354 20.6866C7.36655 20.6866 6.2551 20.3073 5.30973 19.5967C4.36436 18.886 3.62753 17.876 3.19242 16.6942C2.75731 15.5125 2.64347 14.2121 2.86529 12.9576C3.0871 11.7031 3.63461 10.5507 4.43859 9.64624C5.24256 8.74177 6.26688 8.12582 7.38202 7.87627C8.49716 7.62673 9.65304 7.75481 10.7035 8.2443C11.7539 8.7338 12.6517 9.56273 13.2834 10.6263C13.9151 11.6898 14.2523 12.9402 14.2523 14.2193C14.2523 15.9345 13.6466 17.5795 12.5685 18.7924C11.4904 20.0052 10.0282 20.6866 8.50354 20.6866ZM17 14.0327C17 9.77673 14.2481 6.12505 10.6197 4.56384C12.6413 3.61615 14.8096 3.12822 16.9997 3.12822C19.1898 3.12822 21.3582 3.61615 23.3797 4.56384C19.7513 6.12572 17 9.7774 17 14.0327ZM25.4929 20.6866C23.9681 20.6865 22.5051 20.005 21.4269 18.7919C20.3487 17.5789 19.743 15.9336 19.743 14.2182C19.7431 12.5027 20.3488 10.8575 21.4271 9.64448C22.5053 8.43147 23.9678 7.75001 25.4926 7.75001C27.0175 7.75001 28.4799 8.43147 29.5581 9.64448C30.6364 10.8575 31.2422 12.5027 31.2422 14.2182C31.2423 15.9336 30.6366 17.5789 29.5584 18.7919C28.4802 20.005 27.0178 20.6865 25.4929 20.6866ZM8.50354 10.8286C7.90744 10.8286 7.32413 11.0275 6.82849 11.4C6.33284 11.7726 5.94654 12.3022 5.71842 12.9217C5.4903 13.5413 5.43061 14.2231 5.54691 14.8808C5.6632 15.5385 5.95025 16.1427 6.37176 16.6169C6.79327 17.0911 7.33031 17.414 7.91496 17.5449C8.49961 17.6757 9.10561 17.6085 9.65634 17.3519C10.2071 17.0953 10.6778 16.6607 11.009 16.1031C11.3401 15.5455 11.5169 14.8899 11.5169 14.2193V14.212C11.5165 13.7673 11.4383 13.3269 11.2866 12.9162C11.135 12.5055 10.9129 12.1324 10.6331 11.8182C10.3533 11.504 10.0212 11.2549 9.6558 11.0851C9.29041 10.9153 8.89887 10.8282 8.50354 10.8286ZM25.4929 10.8286C24.8968 10.8286 24.3141 11.0275 23.8184 11.4C23.3228 11.7726 22.9365 12.3022 22.7084 12.9217C22.4803 13.5413 22.4206 14.2231 22.5369 14.8808C22.6532 15.5385 22.9402 16.1427 23.3617 16.6169C23.7832 17.0911 24.3203 17.414 24.9049 17.5449C25.4896 17.6757 26.0956 17.6085 26.6463 17.3519C27.197 17.0953 27.6678 16.6607 27.9989 16.1031C28.3301 15.5455 28.5069 14.8899 28.5069 14.2193C28.5069 13.32 28.1893 12.4576 27.6241 11.8217C27.0589 11.1858 26.2923 10.8286 25.4929 10.8286Z" fill="white"/>
</svg>
