<svg width="30" height="30" viewBox="0 0 30 30" fill="none" xmlns="http://www.w3.org/2000/svg">
<path d="M27.1875 0H2.8125C1.26562 0 0 1.26562 0 2.8125V27.1875C0 28.7344 1.26562 30 2.8125 30H27.1875C28.7344 30 30 28.7344 30 27.1875V2.8125C30 1.26562 28.7344 0 27.1875 0ZM24.2981 21L21.555 21.0413C21.555 21.0413 20.9625 21.1594 20.19 20.625C19.1644 19.9219 18.1969 18.0881 17.4412 18.3281C16.68 18.5681 16.7025 20.2144 16.7025 20.2144C16.7025 20.2144 16.7081 20.5669 16.5319 20.7525C16.3444 20.9569 15.9694 20.9981 15.9694 20.9981H14.745C14.745 20.9981 12.0375 21.1631 9.6525 18.6769C7.05 15.9694 4.755 10.5975 4.755 10.5975C4.755 10.5975 4.62 10.245 4.76625 10.0763C4.92938 9.88313 5.37 9.87187 5.37 9.87187L8.30625 9.855C8.30625 9.855 8.58188 9.90188 8.78063 10.0481C8.94563 10.1663 9.03187 10.3931 9.03187 10.3931C9.03187 10.3931 9.50625 11.595 10.1344 12.6788C11.3588 14.7937 11.9325 15.2569 12.3488 15.0337C12.9525 14.7056 12.7706 12.0394 12.7706 12.0394C12.7706 12.0394 12.7819 11.0719 12.4669 10.6444C12.2213 10.3106 11.7581 10.2113 11.5594 10.1869C11.3944 10.1625 11.6644 9.78187 12.0169 9.6075C12.5437 9.34875 13.4756 9.33187 14.5781 9.34312C15.4331 9.34875 15.6862 9.40688 16.02 9.48375C17.0344 9.72937 16.6875 10.6725 16.6875 12.9356C16.6875 13.6631 16.5581 14.6813 17.0794 15.015C17.3025 15.1613 17.8519 15.0375 19.23 12.7013C19.8806 11.5931 20.3719 10.2937 20.3719 10.2937C20.3719 10.2937 20.4769 10.0594 20.6419 9.96C20.8125 9.86063 21.0413 9.89062 21.0413 9.89062L24.1294 9.87375C24.1294 9.87375 25.0556 9.76313 25.2075 10.185C25.365 10.6238 24.8625 11.6494 23.6025 13.3313C21.5344 16.0912 21.3 15.8325 23.0231 17.4262C24.6637 18.9506 25.0031 19.6931 25.0631 19.7869C25.7306 20.9119 24.3019 21 24.3019 21H24.2981Z" fill="white"/>
</svg>
